<svg width="24" height="24" viewBox="0 0 24 24" fill="none" xmlns="http://www.w3.org/2000/svg">
<g clip-path="url(#clip0_3_11)">
<path fill-rule="evenodd" clip-rule="evenodd" d="M10.5066 20.2781C10.4739 20.3354 10.4266 20.383 10.3694 20.416C10.3123 20.4489 10.2474 20.4661 10.1814 20.4656C10.116 20.4663 10.0515 20.4502 9.99417 20.4188L6.9158 18.6422C6.82939 18.5922 6.7664 18.5099 6.74066 18.4134C6.71493 18.317 6.72856 18.2143 6.77857 18.1279C6.82858 18.0415 6.91086 17.9785 7.00732 17.9527C7.10377 17.927 7.2065 17.9406 7.29291 17.9906L10.3693 19.7672C10.4119 19.7917 10.4493 19.8243 10.4793 19.8633C10.5092 19.9022 10.5312 19.9467 10.544 19.9942C10.5567 20.0416 10.56 20.0911 10.5536 20.1399C10.5472 20.1886 10.5312 20.2356 10.5066 20.2781ZM12.3783 22.9734V12.2156L15.0612 10.6688V15.3234C15.0613 15.4229 15.1008 15.5182 15.1711 15.5885C15.2414 15.6588 15.3368 15.6984 15.4362 15.6984C15.5364 15.697 15.6322 15.6567 15.7031 15.5859L17.2687 14.0016L18.7778 14.3859C18.8333 14.4004 18.8915 14.4015 18.9475 14.3893C19.0035 14.3771 19.0559 14.3519 19.1003 14.3156C19.1456 14.2809 19.1822 14.2362 19.2074 14.1849C19.2325 14.1337 19.2455 14.0774 19.2453 14.0203V8.25L21.6958 6.83906V17.5969L12.3783 22.9734ZM2.31061 6.83906V17.5969L11.6281 22.9734V12.2156L2.31061 6.83906ZM12.0032 11.5688L14.6091 10.0641L5.2912 4.68281L2.68533 6.1875L12.0032 11.5688ZM12.0032 0.808172L9.39741 2.31094L18.7146 7.69219L21.3205 6.1875L12.0032 0.808172ZM22.2582 5.86406L12.1908 0.0501567C12.1338 0.0171976 12.0691 -0.000156403 12.0033 -0.000156403C11.9374 -0.000156403 11.8728 0.0171976 11.8158 0.0501567L1.74797 5.86406C1.69075 5.8964 1.64321 5.94343 1.61025 6.00029C1.57728 6.05715 1.5601 6.12178 1.56047 6.1875V17.8125C1.56013 17.8782 1.57733 17.9428 1.61029 17.9997C1.64325 18.0565 1.69078 18.1036 1.74797 18.1359L11.8157 23.9484C11.8724 23.9822 11.9372 24 12.0032 24C12.0692 24 12.134 23.9822 12.1907 23.9484L22.2581 18.1359C22.3153 18.1036 22.3629 18.0566 22.3959 17.9997C22.4288 17.9429 22.446 17.8782 22.4456 17.8125V6.1875C22.446 6.12177 22.4289 6.05712 22.3959 6.00025C22.363 5.94338 22.3154 5.89636 22.2582 5.86406Z" fill="#FFC107"/>
</g>
<defs>
<clipPath id="clip0_3_11">
<rect width="24" height="24" fill="white"/>
</clipPath>
</defs>
</svg>
