<svg width="24" height="24" viewBox="0 0 24 24" fill="none" xmlns="http://www.w3.org/2000/svg">
<path d="M20.25 16.9725C19.7358 16.973 19.2372 17.1497 18.8373 17.4731C18.4375 17.7965 18.1605 18.2472 18.0525 18.75H14.25C14.2151 18.7465 14.1799 18.7465 14.145 18.75C14.0478 18.4074 13.8706 18.0928 13.6281 17.832C13.3856 17.5712 13.0847 17.3718 12.75 17.25V14.3475H18.24C19.2856 14.3563 20.2975 13.9782 21.0811 13.2859C21.8647 12.5937 22.3648 11.6361 22.485 10.5975C22.54 10.0241 22.4743 9.44565 22.2922 8.89925C22.11 8.35285 21.8155 7.85064 21.4275 7.42497C20.9462 6.90686 20.342 6.51843 19.6708 6.29558C18.9997 6.07273 18.2832 6.02265 17.5875 6.14997C17.1202 4.96059 16.2853 3.9515 15.2045 3.26966C14.1237 2.58783 12.8534 2.26888 11.5787 2.35927C10.304 2.44966 9.0915 2.94468 8.11774 3.7722C7.14397 4.59973 6.45985 5.71655 6.16502 6.95997C5.58114 6.81001 4.96972 6.80303 4.38257 6.9396C3.79541 7.07618 3.24984 7.3523 2.79209 7.74456C2.33433 8.13681 1.97789 8.63364 1.75297 9.19294C1.52805 9.75223 1.44129 10.3575 1.50002 10.9575C1.61434 11.8986 2.07144 12.7646 2.78398 13.39C3.49652 14.0154 4.41451 14.3562 5.36252 14.3475H11.25V17.295C10.9347 17.4077 10.6485 17.5895 10.4124 17.8269C10.1762 18.0644 9.99607 18.3515 9.88502 18.6675L5.94752 18.75C5.8376 18.2313 5.54808 17.7682 5.13002 17.4422C4.71196 17.1162 4.19221 16.9483 3.66243 16.9681C3.13266 16.9878 2.62689 17.1941 2.23431 17.5503C1.84173 17.9066 1.58757 18.3901 1.51664 18.9155C1.44572 19.4408 1.56258 19.9744 1.84663 20.422C2.13068 20.8697 2.56367 21.2026 3.06923 21.3622C3.57479 21.5217 4.12046 21.4976 4.61 21.2942C5.09954 21.0907 5.50151 20.7209 5.74502 20.25L9.89252 20.175C10.0504 20.6015 10.3339 20.9702 10.7056 21.2325C11.0772 21.4947 11.5197 21.6381 11.9745 21.6438C12.4293 21.6494 12.8752 21.5171 13.2533 21.2643C13.6314 21.0115 13.924 20.65 14.0925 20.2275C14.1444 20.2386 14.1971 20.2461 14.25 20.25H18.2625C18.4453 20.6061 18.7198 20.9069 19.0576 21.1216C19.3955 21.3362 19.7845 21.4568 20.1845 21.471C20.5845 21.4852 20.9811 21.3924 21.3333 21.2022C21.6855 21.012 21.9805 20.7313 22.1881 20.3891C22.3956 20.0468 22.5081 19.6554 22.5139 19.2552C22.5198 18.855 22.4187 18.4604 22.2212 18.1123C22.0238 17.7641 21.737 17.475 21.3905 17.2746C21.044 17.0742 20.6503 16.9699 20.25 16.9725ZM3.00002 10.815C2.96983 10.5019 3.00562 10.1859 3.1051 9.88749C3.20457 9.58908 3.3655 9.31484 3.57752 9.08247C3.92776 8.70944 4.39295 8.4646 4.89873 8.3871C5.4045 8.3096 5.92166 8.40392 6.36752 8.65497C6.48154 8.7208 6.61087 8.75545 6.74252 8.75545C6.87417 8.75545 7.00351 8.7208 7.11752 8.65497C7.23222 8.59594 7.32975 8.50833 7.4007 8.4006C7.47164 8.29286 7.5136 8.16865 7.52252 8.03997C7.59732 6.97307 8.04968 5.96768 8.7985 5.20404C9.54733 4.44041 10.5437 3.96844 11.6089 3.87275C12.6741 3.77706 13.7386 4.0639 14.6115 4.68186C15.4845 5.29981 16.1088 6.20848 16.3725 7.24497C16.3979 7.34879 16.4451 7.44599 16.5111 7.53007C16.577 7.61414 16.6602 7.68315 16.755 7.73247C16.8527 7.77704 16.9589 7.8001 17.0663 7.8001C17.1737 7.8001 17.2798 7.77704 17.3775 7.73247C17.8792 7.53606 18.4283 7.49468 18.9538 7.61368C19.4792 7.73268 19.9569 8.00658 20.325 8.39997C20.5858 8.67835 20.7815 9.01107 20.8983 9.3742C21.015 9.73732 21.0497 10.1218 21 10.5C20.9151 11.1639 20.5879 11.7731 20.0813 12.2105C19.5746 12.6479 18.9242 12.8828 18.255 12.87H5.37752C4.79687 12.8836 4.2319 12.6808 3.79248 12.301C3.35306 11.9211 3.0706 11.3915 3.00002 10.815ZM3.75002 19.9725C3.60169 19.9725 3.45668 19.9285 3.33334 19.8461C3.21001 19.7637 3.11388 19.6465 3.05711 19.5095C3.00035 19.3724 2.98549 19.2216 3.01443 19.0762C3.04337 18.9307 3.1148 18.797 3.21969 18.6921C3.32458 18.5872 3.45822 18.5158 3.6037 18.4869C3.74919 18.4579 3.89999 18.4728 4.03703 18.5296C4.17408 18.5863 4.29121 18.6825 4.37362 18.8058C4.45603 18.9291 4.50002 19.0741 4.50002 19.2225C4.50002 19.4214 4.421 19.6121 4.28035 19.7528C4.1397 19.8935 3.94893 19.9725 3.75002 19.9725ZM12 20.16C11.8517 20.16 11.7067 20.116 11.5833 20.0336C11.46 19.9512 11.3639 19.834 11.3071 19.697C11.2503 19.5599 11.2355 19.4091 11.2644 19.2637C11.2934 19.1182 11.3648 18.9845 11.4697 18.8796C11.5746 18.7747 11.7082 18.7033 11.8537 18.6744C11.9992 18.6454 12.15 18.6603 12.287 18.7171C12.4241 18.7738 12.5412 18.87 12.6236 18.9933C12.706 19.1166 12.75 19.2616 12.75 19.41C12.75 19.6089 12.671 19.7996 12.5304 19.9403C12.3897 20.081 12.1989 20.16 12 20.16ZM20.25 19.9725C20.1017 19.9725 19.9567 19.9285 19.8333 19.8461C19.71 19.7637 19.6139 19.6465 19.5571 19.5095C19.5003 19.3724 19.4855 19.2216 19.5144 19.0762C19.5434 18.9307 19.6148 18.797 19.7197 18.6921C19.8246 18.5872 19.9582 18.5158 20.1037 18.4869C20.2492 18.4579 20.4 18.4728 20.537 18.5296C20.6741 18.5863 20.7912 18.6825 20.8736 18.8058C20.956 18.9291 21 19.0741 21 19.2225C21 19.4214 20.921 19.6121 20.7804 19.7528C20.6397 19.8935 20.4489 19.9725 20.25 19.9725Z" fill="black"/>
</svg>
