<svg width="24" height="24" viewBox="0 0 24 24" fill="none" xmlns="http://www.w3.org/2000/svg">
<path d="M7 17V3.11765C7 1.94807 6.05983 1 4.9 1H2.1C0.94017 1 0 1.94807 0 3.11765V17H7Z" fill="#6B7A99"/>
<path d="M4.60004 1H3V17H7V3.11765C7.00005 1.94807 5.92556 1 4.60004 1Z" fill="#5A6680"/>
<path d="M0 16V20.9C0 22.0598 0.94017 23 2.1 23H4.9C6.05987 23 7 22.0598 7 20.9V16H0Z" fill="#6B7A99"/>
<path d="M3 23H4.59999C5.92556 23 7 22.0598 7 20.9V16H3V23Z" fill="#5A6680"/>
<path d="M3.17389 20.1305C3.5701 20.1305 3.8913 19.8093 3.8913 19.4131C3.8913 19.0168 3.5701 18.6956 3.17389 18.6956C2.77768 18.6956 2.45649 19.0168 2.45649 19.4131C2.45649 19.8093 2.77768 20.1305 3.17389 20.1305Z" fill="#E6F3FF"/>
<path d="M3.17389 14.3913C2.77785 14.3913 2.45649 14.0702 2.45649 13.6739V4.58694C2.45649 4.19064 2.77785 3.86954 3.17389 3.86954C3.56994 3.86954 3.8913 4.19064 3.8913 4.58694V13.6739C3.8913 14.0702 3.56998 14.3913 3.17389 14.3913Z" fill="#E6F3FF"/>
<path d="M3.8913 19.4131C3.8913 19.0169 3.57011 18.6956 3.17389 18.6956V20.1304C3.57011 20.1304 3.8913 19.8092 3.8913 19.4131Z" fill="#CFDBE6"/>
<path d="M3.8913 13.6739V4.58694C3.8913 4.19064 3.56994 3.86954 3.17389 3.86954V14.3913C3.56998 14.3913 3.8913 14.0702 3.8913 13.6739Z" fill="#CFDBE6"/>
<path d="M15.913 17.7391V2.34783C15.913 1.05112 14.862 0 13.5652 0H10.4348C9.138 0 8.08692 1.05112 8.08692 2.34783V17.7391H15.913Z" fill="#F25030"/>
<path d="M13.5652 0H12V17.7391H15.913V2.34783C15.913 1.05112 14.862 0 13.5652 0Z" fill="#D9472C"/>
<path d="M8.08697 16.1739V21.6522C8.08697 22.9488 9.13805 24 10.4348 24H13.5653C14.862 24 15.9131 22.9489 15.9131 21.6522V16.1739H8.08697Z" fill="#F25030"/>
<path d="M12 24H13.5652C14.862 24 15.913 22.9489 15.913 21.6522V16.1739H12V24Z" fill="#D9472C"/>
<path d="M12 20.8696C12.4322 20.8696 12.7826 20.5192 12.7826 20.087C12.7826 19.6547 12.4322 19.3043 12 19.3043C11.5678 19.3043 11.2174 19.6547 11.2174 20.087C11.2174 20.5192 11.5678 20.8696 12 20.8696Z" fill="#E6F3FF"/>
<path d="M12 14.6087C11.568 14.6087 11.2174 14.2584 11.2174 13.8261V3.91303C11.2174 3.4807 11.568 3.13041 12 3.13041C12.432 3.13041 12.7826 3.4807 12.7826 3.91303V13.8261C12.7826 14.2584 12.432 14.6087 12 14.6087Z" fill="#E6F3FF"/>
<path d="M12.7826 20.087C12.7826 19.6548 12.4322 19.3043 12 19.3043V20.8695C12.4322 20.8695 12.7826 20.5192 12.7826 20.087Z" fill="#CFDBE6"/>
<path d="M12.7826 13.8261V3.91303C12.7826 3.4807 12.432 3.13041 12 3.13041V14.6087C12.432 14.6087 12.7826 14.2584 12.7826 13.8261Z" fill="#CFDBE6"/>
<path d="M24 17V3.11765C24 1.94807 23.0598 1 21.9 1H19.1C17.9401 1 17 1.94807 17 3.11765V17H24Z" fill="#32BBFF"/>
<path d="M22.2 1H21V17H24V3.11765C24 1.94807 23.1941 1 22.2 1Z" fill="#03A9F4"/>
<path d="M17 16V20.9C17 22.0598 17.9401 23 19.1 23H21.9C23.0599 23 24 22.0598 24 20.9V16H17Z" fill="#32BBFF"/>
<path d="M21 23H22.2C23.1942 23 24 22.0598 24 20.9V16H21V23Z" fill="#03A9F4"/>
<path d="M20.8261 20.1305C21.2223 20.1305 21.5435 19.8093 21.5435 19.4131C21.5435 19.0168 21.2223 18.6956 20.8261 18.6956C20.4299 18.6956 20.1087 19.0168 20.1087 19.4131C20.1087 19.8093 20.4299 20.1305 20.8261 20.1305Z" fill="#E6F3FF"/>
<path d="M20.8261 14.3913C20.4301 14.3913 20.1087 14.0702 20.1087 13.6739V4.58694C20.1087 4.19064 20.4301 3.86954 20.8261 3.86954C21.2221 3.86954 21.5435 4.19064 21.5435 4.58694V13.6739C21.5435 14.0702 21.2221 14.3913 20.8261 14.3913Z" fill="#E6F3FF"/>
<path d="M21.5435 19.4131C21.5435 19.0169 21.2223 18.6956 20.8261 18.6956V20.1304C21.2223 20.1304 21.5435 19.8092 21.5435 19.4131Z" fill="#CFDBE6"/>
<path d="M21.5435 13.6739V4.58694C21.5435 4.19064 21.2221 3.86954 20.8261 3.86954V14.3913C21.2222 14.3913 21.5435 14.0702 21.5435 13.6739Z" fill="#CFDBE6"/>
</svg>
