<svg width="24" height="24" viewBox="0 0 24 24" fill="none" xmlns="http://www.w3.org/2000/svg">
<path d="M12 3C10.22 3 8.47991 3.52784 6.99987 4.51677C5.51983 5.50571 4.36628 6.91131 3.68509 8.55585C3.0039 10.2004 2.82567 12.01 3.17294 13.7558C3.5202 15.5016 4.37737 17.1053 5.63604 18.364C6.89471 19.6226 8.49836 20.4798 10.2442 20.8271C11.99 21.1743 13.7996 20.9961 15.4442 20.3149C17.0887 19.6337 18.4943 18.4802 19.4832 17.0001C20.4722 15.5201 21 13.78 21 12C20.9973 9.61388 20.0482 7.32626 18.361 5.63902C16.6737 3.95178 14.3861 3.0027 12 3ZM12 19.8C10.4573 19.8 8.94926 19.3425 7.66655 18.4855C6.38385 17.6284 5.38411 16.4102 4.79374 14.9849C4.20338 13.5597 4.04891 11.9913 4.34988 10.4783C4.65084 8.96524 5.39372 7.57542 6.48457 6.48457C7.57542 5.39372 8.96525 4.65084 10.4783 4.34987C11.9913 4.04891 13.5597 4.20338 14.9849 4.79374C16.4102 5.3841 17.6284 6.38385 18.4855 7.66655C19.3425 8.94925 19.8 10.4573 19.8 12C19.7976 14.068 18.9751 16.0505 17.5128 17.5128C16.0505 18.9751 14.068 19.7976 12 19.8Z" fill="url(#paint0_linear_1_117)"/>
<path d="M16.7133 11.47L9.92705 7.095C9.83533 7.03587 9.72994 7.00314 9.62182 7.00022C9.5137 6.99729 9.40679 7.02427 9.31219 7.07835C9.21759 7.13243 9.13874 7.21165 9.08385 7.30778C9.02895 7.4039 9 7.51344 9 7.625V16.375C9 16.4866 9.02895 16.5961 9.08385 16.6922C9.13874 16.7883 9.21759 16.8676 9.31219 16.9217C9.40679 16.9757 9.5137 17.0027 9.62182 16.9998C9.72994 16.9969 9.83533 16.9641 9.92705 16.905L16.7133 12.53C16.801 12.4739 16.8733 12.3957 16.9235 12.3028C16.9737 12.2098 17 12.1052 17 11.9987C17 11.8923 16.9737 11.7877 16.9235 11.6947C16.8733 11.6018 16.801 11.5236 16.7133 11.4675V11.47ZM10.2118 15.25V8.75L15.2488 12L10.2118 15.25Z" fill="url(#paint1_linear_1_117)"/>
<defs>
<linearGradient id="paint0_linear_1_117" x1="17" y1="3.5" x2="7" y2="20" gradientUnits="userSpaceOnUse">
<stop stop-color="#EA99E6"/>
<stop offset="1" stop-color="#3EC2ED"/>
</linearGradient>
<linearGradient id="paint1_linear_1_117" x1="15.2222" y1="7.27778" x2="9.18939" y2="15.2411" gradientUnits="userSpaceOnUse">
<stop stop-color="#EA99E6"/>
<stop offset="1" stop-color="#3EC2ED"/>
</linearGradient>
</defs>
</svg>
