<svg width="24" height="24" viewBox="0 0 24 24" fill="none" xmlns="http://www.w3.org/2000/svg">
<path d="M17.8637 4H6.13637C4.95837 4 4 4.95837 4 6.13634V15.0461V17.8636C4 19.0416 4.95837 20 6.13637 20H17.8637C19.0417 20 20 19.0416 20 17.8637V6.13634C20 4.95837 19.0417 4 17.8637 4ZM6.13637 5H17.8637C18.4903 5 19 5.50978 19 6.13634V13.5555L14.716 9.27153C14.5207 9.07628 14.2042 9.07628 14.0089 9.27153L10.6916 12.5888L8.63319 10.8533C8.43462 10.6859 8.14097 10.6984 7.95734 10.882L5 13.8393V6.13634C5 5.50978 5.50978 5 6.13637 5ZM17.8637 19H6.13637C5.50978 19 5 18.4903 5 17.8637V15.2535L8.33969 11.9138L10.4039 13.6543L10.4052 13.6554L12.1236 15.1043C12.3347 15.2823 12.6502 15.2554 12.8282 15.0443C13.0062 14.8332 12.9793 14.5178 12.7682 14.3398L11.4588 13.2357L14.3624 10.3322L19 14.9697V17.8636C19 18.4902 18.4903 19 17.8637 19ZM10.0999 9.07356C10.7608 9.07356 11.2986 8.53584 11.2986 7.87487C11.2986 7.21394 10.7608 6.67622 10.0999 6.67622C9.43894 6.67622 8.90119 7.21394 8.90119 7.87487C8.90119 8.53581 9.43891 9.07356 10.0999 9.07356ZM10.0999 7.67619C10.2094 7.67619 10.2986 7.76531 10.2986 7.87484C10.2986 7.98438 10.2094 8.07353 10.0999 8.07353C9.99031 8.07353 9.90119 7.98438 9.90119 7.87484C9.90119 7.76531 9.99031 7.67619 10.0999 7.67619Z" fill="url(#paint0_linear_2_2)"/>
<defs>
<linearGradient id="paint0_linear_2_2" x1="4.62644" y1="19.3736" x2="19.3736" y2="4.62644" gradientUnits="userSpaceOnUse">
<stop stop-color="#B5FFD7"/>
<stop offset="1" stop-color="#27BEFF"/>
</linearGradient>
</defs>
</svg>
