<svg width="21" height="24" viewBox="0 0 21 24" fill="none" xmlns="http://www.w3.org/2000/svg">
<path d="M20.2478 2.34431V21.6534C20.2478 22.9447 19.1925 24 17.9012 24H2.3445C2.27297 24 2.20139 23.9964 2.13347 23.9893C2.06194 23.9857 1.99397 23.975 1.926 23.9607C1.89024 23.9571 1.85447 23.9499 1.82227 23.9392C1.62553 23.8963 1.43597 23.8247 1.26422 23.7317C1.26066 23.7317 1.26066 23.7282 1.26066 23.7282C1.24992 23.7246 1.23919 23.721 1.23202 23.7139C1.16405 23.6781 1.09964 23.6387 1.03885 23.5958C0.963752 23.5493 0.892174 23.4956 0.827814 23.4348C0.781314 23.399 0.738377 23.3561 0.695486 23.3132C0.613221 23.2345 0.53808 23.1451 0.470111 23.052C0.448643 23.0235 0.427174 22.9913 0.405705 22.9626C0.355643 22.8911 0.309096 22.816 0.273377 22.7408C0.237611 22.68 0.208971 22.6156 0.183939 22.5513C0.155299 22.4869 0.130268 22.4189 0.108799 22.3474C0.0909394 22.3009 0.0801581 22.2579 0.0694706 22.2079C0.0587363 22.1685 0.0480019 22.1256 0.04083 22.0827C0.0336581 22.0469 0.0300956 22.0076 0.0229706 21.9718C0.0229706 21.9646 0.0194081 21.9574 0.0194081 21.9503C0.00867377 21.8537 0.00154877 21.7536 0.00154877 21.6535V8.4075L8.40764 0.00131226H17.9012C18.1767 0.00131226 18.4414 0.0477654 18.6846 0.140765C19.35 0.373312 19.8758 0.902719 20.1083 1.56445C20.1548 1.67897 20.187 1.797 20.2085 1.91864C20.2228 1.98656 20.2299 2.05814 20.2371 2.12611C20.2442 2.19759 20.2478 2.27278 20.2478 2.34431Z" fill="#4DB5FF"/>
<path d="M6.06122 8.40694C7.35136 8.40694 8.40694 7.35136 8.40694 6.06122V0L0 8.40694H6.06122Z" fill="#447FB3"/>
<path opacity="0.06" d="M20.2478 2.34431V21.6534C20.2478 22.9447 19.1925 24 17.9012 24H2.3445C2.27297 24 2.20139 23.9964 2.13347 23.9893C2.06194 23.9857 1.99397 23.975 1.926 23.9607C1.89024 23.9571 1.85447 23.9499 1.82227 23.9392C1.62553 23.8963 1.43597 23.8247 1.26422 23.7317C1.26066 23.7317 1.26066 23.7282 1.26066 23.7282C1.24992 23.7246 1.23919 23.721 1.23202 23.7139C1.16405 23.6781 1.09964 23.6387 1.03884 23.5958C0.963751 23.5493 0.892172 23.4956 0.827813 23.4348C0.781313 23.399 0.738376 23.3561 0.695485 23.3132C0.613219 23.2345 0.538079 23.1451 0.47011 23.052C0.448641 23.0235 0.427172 22.9912 0.405704 22.9626C0.355641 22.8911 0.309094 22.816 0.273376 22.7408C0.23761 22.68 0.208969 22.6156 0.183938 22.5513C0.155297 22.4869 0.130266 22.4189 0.108797 22.3474C0.0909381 22.3009 0.0801568 22.2579 0.0694693 22.2079C0.058735 22.1685 0.0480006 22.1256 0.0408287 22.0827L9.6203 12.5032L10.1712 11.9559L10.6362 11.4873H10.6397L20.2085 1.91864C20.2228 1.98656 20.2299 2.05814 20.2371 2.12611C20.2442 2.19759 20.2478 2.27278 20.2478 2.34431Z" fill="black"/>
<path opacity="0.1" d="M20.2263 20.9952V21.5246C20.2263 22.8124 19.1711 23.8676 17.8833 23.8676H2.32659C1.81148 23.8676 1.33214 23.6995 0.945843 23.4133C0.745546 23.2702 0.573796 23.0949 0.427171 22.8946C0.251905 22.6514 0.11953 22.3759 0.0479991 22.0755C0.0372647 22.0432 0.0301397 22.0075 0.0229679 21.9717C0.0229679 21.9645 0.0194054 21.9574 0.0194054 21.9503L0.137437 21.8359C0.151733 21.8716 0.166077 21.9074 0.180374 21.9432C0.548812 22.7623 1.37512 23.3418 2.32664 23.3418H17.8834C19.1711 23.3418 20.2263 22.2866 20.2263 20.9952Z" fill="black"/>
</svg>
