<svg width="24" height="24" viewBox="0 0 24 24" fill="none" xmlns="http://www.w3.org/2000/svg">
<path d="M19 5.51019C19 5.28068 18.9476 5.05418 18.8467 4.84791C18.7459 4.64163 18.5991 4.46101 18.4178 4.31977C18.2364 4.17853 18.0251 4.08039 17.8 4.03281C17.5749 3.98522 17.3419 3.98945 17.1187 4.04517L9.76231 5.87904C9.43446 5.96042 9.14337 6.14897 8.9355 6.41461C8.72762 6.68025 8.61492 7.00767 8.61538 7.34464V16.754C8.09522 16.4342 7.49564 16.2661 6.88462 16.2689C5.29404 16.2689 4 17.33 4 18.6344C4 19.9389 5.29404 21 6.88462 21C8.44808 21 9.71904 19.9729 9.76115 18.6983H9.76923V10.5164L17.8462 8.50239V14.0046C17.326 13.6848 16.7264 13.5168 16.1154 13.5195C14.5248 13.5195 13.2308 14.5806 13.2308 15.8851C13.2308 17.1896 14.5248 18.2506 16.1154 18.2506C17.706 18.2506 19 17.1896 19 15.8851C19 15.8632 18.9931 15.8431 18.9919 15.8212H19V5.51019ZM6.88462 19.8492C5.94654 19.8492 5.15385 19.2927 5.15385 18.6344C5.15385 17.9762 5.94654 17.4197 6.88462 17.4197C7.82269 17.4197 8.61538 17.9762 8.61538 18.6344C8.61538 19.2927 7.82269 19.8492 6.88462 19.8492ZM9.76923 9.32985V7.34464C9.76896 7.26442 9.79571 7.18644 9.8452 7.12321C9.89468 7.05997 9.96403 7.01515 10.0421 6.99593L17.3985 5.16149C17.4516 5.14818 17.5071 5.14714 17.5607 5.15845C17.6143 5.16975 17.6646 5.19311 17.7077 5.22674C17.7509 5.26037 17.7858 5.30338 17.8098 5.3525C17.8338 5.40162 17.8462 5.45556 17.8462 5.51019V7.31587L9.76923 9.32985ZM16.1154 17.0981C15.1773 17.0981 14.3846 16.5416 14.3846 15.8833C14.3846 15.2251 15.1773 14.6703 16.1154 14.6703C17.0535 14.6703 17.8462 15.2268 17.8462 15.8851C17.8462 16.5434 17.0535 17.0998 16.1154 17.0998V17.0981Z" fill="url(#paint0_linear_6_17)"/>
<defs>
<linearGradient id="paint0_linear_6_17" x1="4.48058" y1="21.904" x2="19.3287" y2="5.59943" gradientUnits="userSpaceOnUse">
<stop stop-color="#F59BFF"/>
<stop offset="1" stop-color="#3BC2EC"/>
</linearGradient>
</defs>
</svg>
