<svg width="24" height="24" viewBox="0 0 24 24" fill="none" xmlns="http://www.w3.org/2000/svg">
<path d="M18.8 4H8.46969C7.80719 4.00081 7.27047 4.55963 7.26969 5.2494V12.8953H6C4.89594 12.8966 4.00125 13.8281 4 14.9777V17.8814C4.00125 19.0509 4.91156 19.9987 6.03484 20H17.5564C18.9055 19.9985 19.9986 18.8602 20 17.4556V5.2494C19.9992 4.55963 19.4625 4.00081 18.8 4ZM7.26969 17.8812C7.26969 18.5913 6.71688 19.1669 6.03484 19.1669C5.35281 19.1669 4.8 18.5913 4.8 17.8812V14.9777C4.80078 14.2879 5.3375 13.7291 6 13.7283H7.26969V17.8812ZM19.2 17.4556C19.1991 18.4003 18.4637 19.1658 17.5564 19.1669H7.65109C7.92297 18.7981 8.07016 18.346 8.06969 17.8812V5.2494C8.07 5.01953 8.24891 4.83326 8.46969 4.83294H18.8C19.0208 4.83326 19.1997 5.01953 19.2 5.2494V17.4556Z" fill="url(#paint0_linear_9_70)"/>
<path d="M10.4007 9H12.5993C12.8206 9 13 8.77617 13 8.5C13 8.22383 12.8206 8 12.5993 8H10.4007C10.1794 8 10 8.22383 10 8.5C10 8.77617 10.1794 9 10.4007 9Z" fill="#C2C2C2"/>
<path d="M16.6005 11H10.3995C10.1788 11 10 11.2238 10 11.5C10 11.776 10.1788 12 10.3995 12H16.6005C16.8212 12 17 11.776 17 11.5C17 11.2238 16.8212 11 16.6005 11Z" fill="#D9D9D9"/>
<path d="M16.6005 14H10.3995C10.1788 14 10 14.2238 10 14.5C10 14.776 10.1788 15 10.3995 15H16.6005C16.8212 15 17 14.776 17 14.5C17 14.2238 16.8212 14 16.6005 14Z" fill="#EBEBEB"/>
<defs>
<linearGradient id="paint0_linear_9_70" x1="5.5" y1="20" x2="22.0108" y2="2.00994" gradientUnits="userSpaceOnUse">
<stop offset="0.322" stop-color="#ECECEC"/>
<stop offset="0.752" stop-color="#A1A1A1"/>
</linearGradient>
</defs>
</svg>
