<svg width="24" height="24" viewBox="0 0 24 24" fill="none" xmlns="http://www.w3.org/2000/svg">
<path d="M5.36171 6.71825C4.82254 6.19814 3.9471 6.19693 3.40637 6.71554C2.86564 7.23415 2.86439 8.0762 3.40356 8.59631C3.57868 8.76521 3.79777 8.8857 4.03793 8.94518V15.0333C3.2988 15.217 2.85443 15.9423 3.04544 16.6532C3.23644 17.3641 3.99046 17.7916 4.72959 17.6078C4.9688 17.5484 5.18707 17.4283 5.36167 17.2602L10.6752 20.2803C10.4527 20.9841 10.8655 21.7281 11.5972 21.942C12.3288 22.156 13.1023 21.759 13.3248 21.0552C13.4046 20.8026 13.4046 20.5329 13.3248 20.2803L18.6383 17.2602C19.1775 17.7803 20.0529 17.7815 20.5936 17.2629C21.1344 16.7443 21.1356 15.9023 20.5964 15.3822C20.4213 15.2133 20.2022 15.0928 19.9621 15.0333V8.94518C20.7012 8.76146 21.1456 8.0362 20.9546 7.32526C20.7636 6.61432 20.0095 6.1869 19.2704 6.37062C19.0312 6.4301 18.8129 6.55014 18.6383 6.71825L13.3248 3.69817C13.3626 3.57938 13.3828 3.4561 13.3847 3.3319C13.3847 2.59632 12.7648 2 12 2C11.2353 2 10.6153 2.59632 10.6153 3.3319C10.6173 3.4561 10.6374 3.57938 10.6752 3.69817L5.36171 6.71825ZM18.2312 16.3179C18.2332 16.4421 18.2533 16.5654 18.2911 16.6842L12.9776 19.7042C12.8026 19.5381 12.5846 19.42 12.3462 19.362V12.1794L18.6383 8.60288C18.8134 8.769 19.0314 8.88716 19.2698 8.94518V15.0333C18.6602 15.1847 18.2336 15.7124 18.2312 16.3179ZM4.73029 15.0333V8.94518C4.96863 8.88724 5.1865 8.76908 5.36137 8.60288L11.6538 12.1794V19.362C11.4155 19.42 11.1975 19.5381 11.0224 19.7042L5.70893 16.6842C5.92919 15.9963 5.52801 15.2669 4.81285 15.055C4.78559 15.0469 4.75802 15.0397 4.73029 15.0333ZM18.2911 8.02684L12 11.6023L5.70893 8.02684C5.78877 7.78868 5.78877 7.53245 5.70893 7.29429L11.0224 4.27422C11.5622 4.79353 12.4373 4.7937 12.9773 4.27455C12.9774 4.27442 12.9775 4.2743 12.9776 4.27422L18.2911 7.29429C18.2113 7.53245 18.2113 7.78868 18.2911 8.02684ZM3.69175 7.66057C3.69175 7.29275 4.00171 6.99462 4.38411 6.99462C4.7665 6.99462 5.07646 7.29275 5.07646 7.66057C5.07646 8.02838 4.7665 8.32651 4.38411 8.32651C4.00171 8.32651 3.69175 8.02838 3.69175 7.66057ZM4.38411 16.9839C4.00171 16.9839 3.69175 16.6857 3.69175 16.3179C3.69175 15.9501 4.00171 15.652 4.38411 15.652C4.7665 15.652 5.07646 15.9501 5.07646 16.3179C5.07646 16.6857 4.76646 16.9839 4.38411 16.9839ZM12 21.3125C11.6176 21.3125 11.3077 21.0144 11.3077 20.6466C11.3077 20.2788 11.6176 19.9806 12 19.9806C12.3824 19.9806 12.6924 20.2788 12.6924 20.6466C12.6924 21.0144 12.3824 21.3125 12 21.3125ZM20.3083 16.3179C20.3083 16.6857 19.9983 16.9839 19.6159 16.9839C19.2335 16.9839 18.9236 16.6857 18.9236 16.3179C18.9236 15.9501 19.2335 15.652 19.6159 15.652C19.9983 15.652 20.3083 15.9501 20.3083 16.3179ZM19.6159 6.99462C19.9983 6.99462 20.3083 7.29275 20.3083 7.66057C20.3083 8.02838 19.9983 8.32651 19.6159 8.32651C19.2335 8.32651 18.9236 8.02838 18.9236 7.66057C18.9236 7.29275 19.2335 6.99462 19.6159 6.99462ZM12 2.66595C12.3824 2.66595 12.6924 2.96409 12.6924 3.3319C12.6924 3.69971 12.3824 3.99785 12 3.99785C11.6176 3.99785 11.3077 3.69971 11.3077 3.3319C11.3077 2.96409 11.6176 2.66595 12 2.66595Z" fill="url(#paint0_linear_8_20)"/>
<path d="M8.88066 13.3663L9.52357 12.9863L9.93018 13.6742L9.28727 14.0542L8.88066 13.3663Z" fill="url(#paint1_linear_8_20)"/>
<path d="M7.59546 14.1262L8.23837 13.7462L8.64498 14.4341L8.00207 14.8141L7.59546 14.1262Z" fill="url(#paint2_linear_8_20)"/>
<path d="M10.167 12.6062L10.8099 12.2262L11.2165 12.9142L10.5736 13.2942L10.167 12.6062Z" fill="url(#paint3_linear_8_20)"/>
<path d="M6.3089 14.8859L6.95181 14.5059L7.35842 15.1939L6.71551 15.5739L6.3089 14.8859Z" fill="url(#paint4_linear_8_20)"/>
<path d="M16.6419 15.1931L17.0484 14.505L17.6914 14.8849L17.2849 15.5729L16.6419 15.1931Z" fill="url(#paint5_linear_8_20)"/>
<path d="M15.3552 14.4344L15.7617 13.7464L16.4047 14.1263L15.9981 14.8143L15.3552 14.4344Z" fill="url(#paint6_linear_8_20)"/>
<path d="M12.7835 12.9143L13.1901 12.2263L13.833 12.6062L13.4265 13.2943L12.7835 12.9143Z" fill="url(#paint7_linear_8_20)"/>
<path d="M14.0695 13.674L14.476 12.9859L15.119 13.3658L14.7125 14.0538L14.0695 13.674Z" fill="url(#paint8_linear_8_20)"/>
<path d="M11.6004 9.99042H12.3996V10.7896H11.6004V9.99042Z" fill="url(#paint9_linear_8_20)"/>
<path d="M11.6004 8.39214H12.3996V9.19128H11.6004V8.39214Z" fill="url(#paint10_linear_8_20)"/>
<path d="M11.6004 6.79387H12.3996V7.59301H11.6004V6.79387Z" fill="url(#paint11_linear_8_20)"/>
<path d="M11.6004 5.19559H12.3996V5.99473H11.6004V5.19559Z" fill="url(#paint12_linear_8_20)"/>
<defs>
<linearGradient id="paint0_linear_8_20" x1="12" y1="2.11188" x2="12" y2="22.8575" gradientUnits="userSpaceOnUse">
<stop stop-color="#FC5C7D"/>
<stop offset="1" stop-color="#ABFFAE"/>
</linearGradient>
<linearGradient id="paint1_linear_8_20" x1="9.40382" y1="0.135438" x2="9.40485" y2="25.033" gradientUnits="userSpaceOnUse">
<stop stop-color="#FC5C7D"/>
<stop offset="0.129" stop-color="#F35E85"/>
<stop offset="0.343" stop-color="#D9659B"/>
<stop offset="0.616" stop-color="#B070BF"/>
<stop offset="0.934" stop-color="#777FF0"/>
<stop offset="1" stop-color="#6A82FB"/>
</linearGradient>
<linearGradient id="paint2_linear_8_20" x1="8.11875" y1="0.135727" x2="8.11945" y2="25.0312" gradientUnits="userSpaceOnUse">
<stop stop-color="#FC5C7D"/>
<stop offset="0.129" stop-color="#F35E85"/>
<stop offset="0.343" stop-color="#D9659B"/>
<stop offset="0.616" stop-color="#B070BF"/>
<stop offset="0.934" stop-color="#777FF0"/>
<stop offset="1" stop-color="#6A82FB"/>
</linearGradient>
<linearGradient id="paint3_linear_8_20" x1="10.6907" y1="0.135443" x2="10.6907" y2="25.0314" gradientUnits="userSpaceOnUse">
<stop stop-color="#FC5C7D"/>
<stop offset="0.129" stop-color="#F35E85"/>
<stop offset="0.343" stop-color="#D9659B"/>
<stop offset="0.616" stop-color="#B070BF"/>
<stop offset="0.934" stop-color="#777FF0"/>
<stop offset="1" stop-color="#6A82FB"/>
</linearGradient>
<linearGradient id="paint4_linear_8_20" x1="6.83264" y1="0.135732" x2="6.83251" y2="25.0298" gradientUnits="userSpaceOnUse">
<stop stop-color="#FC5C7D"/>
<stop offset="0.129" stop-color="#F35E85"/>
<stop offset="0.343" stop-color="#D9659B"/>
<stop offset="0.616" stop-color="#B070BF"/>
<stop offset="0.934" stop-color="#777FF0"/>
<stop offset="1" stop-color="#6A82FB"/>
</linearGradient>
<linearGradient id="paint5_linear_8_20" x1="17.1661" y1="0.131616" x2="17.1669" y2="25.0295" gradientUnits="userSpaceOnUse">
<stop stop-color="#FC5C7D"/>
<stop offset="0.129" stop-color="#F35E85"/>
<stop offset="0.343" stop-color="#D9659B"/>
<stop offset="0.616" stop-color="#B070BF"/>
<stop offset="0.934" stop-color="#777FF0"/>
<stop offset="1" stop-color="#6A82FB"/>
</linearGradient>
<linearGradient id="paint6_linear_8_20" x1="15.8822" y1="0.135331" x2="15.8804" y2="25.0302" gradientUnits="userSpaceOnUse">
<stop stop-color="#FC5C7D"/>
<stop offset="0.129" stop-color="#F35E85"/>
<stop offset="0.343" stop-color="#D9659B"/>
<stop offset="0.616" stop-color="#B070BF"/>
<stop offset="0.934" stop-color="#777FF0"/>
<stop offset="1" stop-color="#6A82FB"/>
</linearGradient>
<linearGradient id="paint7_linear_8_20" x1="13.3098" y1="0.135044" x2="13.3093" y2="25.0307" gradientUnits="userSpaceOnUse">
<stop stop-color="#FC5C7D"/>
<stop offset="0.129" stop-color="#F35E85"/>
<stop offset="0.343" stop-color="#D9659B"/>
<stop offset="0.616" stop-color="#B070BF"/>
<stop offset="0.934" stop-color="#777FF0"/>
<stop offset="1" stop-color="#6A82FB"/>
</linearGradient>
<linearGradient id="paint8_linear_8_20" x1="14.5942" y1="0.132109" x2="14.5942" y2="25.0295" gradientUnits="userSpaceOnUse">
<stop stop-color="#FC5C7D"/>
<stop offset="0.129" stop-color="#F35E85"/>
<stop offset="0.343" stop-color="#D9659B"/>
<stop offset="0.616" stop-color="#B070BF"/>
<stop offset="0.934" stop-color="#777FF0"/>
<stop offset="1" stop-color="#6A82FB"/>
</linearGradient>
<linearGradient id="paint9_linear_8_20" x1="12" y1="0.134254" x2="12" y2="25.029" gradientUnits="userSpaceOnUse">
<stop stop-color="#FC5C7D"/>
<stop offset="0.129" stop-color="#F35E85"/>
<stop offset="0.343" stop-color="#D9659B"/>
<stop offset="0.616" stop-color="#B070BF"/>
<stop offset="0.934" stop-color="#777FF0"/>
<stop offset="1" stop-color="#6A82FB"/>
</linearGradient>
<linearGradient id="paint10_linear_8_20" x1="12" y1="0.134255" x2="12" y2="25.029" gradientUnits="userSpaceOnUse">
<stop stop-color="#FC5C7D"/>
<stop offset="0.129" stop-color="#F35E85"/>
<stop offset="0.343" stop-color="#D9659B"/>
<stop offset="0.616" stop-color="#B070BF"/>
<stop offset="0.934" stop-color="#777FF0"/>
<stop offset="1" stop-color="#6A82FB"/>
</linearGradient>
<linearGradient id="paint11_linear_8_20" x1="12" y1="0.134255" x2="12" y2="25.029" gradientUnits="userSpaceOnUse">
<stop stop-color="#FC5C7D"/>
<stop offset="0.129" stop-color="#F35E85"/>
<stop offset="0.343" stop-color="#D9659B"/>
<stop offset="0.616" stop-color="#B070BF"/>
<stop offset="0.934" stop-color="#777FF0"/>
<stop offset="1" stop-color="#6A82FB"/>
</linearGradient>
<linearGradient id="paint12_linear_8_20" x1="12" y1="0.134255" x2="12" y2="25.029" gradientUnits="userSpaceOnUse">
<stop stop-color="#FC5C7D"/>
<stop offset="0.129" stop-color="#F35E85"/>
<stop offset="0.343" stop-color="#D9659B"/>
<stop offset="0.616" stop-color="#B070BF"/>
<stop offset="0.934" stop-color="#777FF0"/>
<stop offset="1" stop-color="#6A82FB"/>
</linearGradient>
</defs>
</svg>
