<svg width="24" height="24" viewBox="0 0 24 24" fill="none" xmlns="http://www.w3.org/2000/svg">
<path d="M20.125 6.67337H11.7363L10.0869 4.27226C9.96938 4.10113 9.78 4 9.57812 4H3.875C2.84125 4 2 4.87254 2 5.94474V18.0553C2 19.1275 2.84125 20 3.875 20H20.125C21.1587 20 22 19.1275 22 18.0553V8.6181C22 7.5459 21.1587 6.67337 20.125 6.67337ZM20.75 18.0553C20.75 18.4124 20.4694 18.7035 20.125 18.7035H3.875C3.53062 18.7035 3.25 18.4124 3.25 18.0553V5.94474C3.25 5.58755 3.53062 5.29649 3.875 5.29649H9.25562L10.905 7.69759C11.0225 7.86873 11.2119 7.96986 11.4137 7.96986H20.125C20.4694 7.96986 20.75 8.26092 20.75 8.6181V18.0553Z" fill="url(#paint0_linear_6_15)"/>
<defs>
<linearGradient id="paint0_linear_6_15" x1="2" y1="12" x2="22" y2="12" gradientUnits="userSpaceOnUse">
<stop stop-color="#FFF33B"/>
<stop offset="0.014" stop-color="#FEE72E"/>
<stop offset="0.042" stop-color="#FED51B"/>
<stop offset="0.07" stop-color="#FDCA10"/>
<stop offset="0.1" stop-color="#FDC70C"/>
<stop offset="0.4" stop-color="#F3903F"/>
<stop offset="0.8" stop-color="#ED683C"/>
<stop offset="1" stop-color="#E93E3A"/>
</linearGradient>
</defs>
</svg>
