<svg width="24" height="24" viewBox="0 0 24 24" fill="none" xmlns="http://www.w3.org/2000/svg">
<path fill-rule="evenodd" clip-rule="evenodd" d="M16.2427 18.0319C14.703 19.2635 12.75 20 10.625 20C5.65444 20 1.625 15.9706 1.625 11C1.625 6.02944 5.65444 2 10.625 2C15.5956 2 19.625 6.02944 19.625 11C19.625 13.125 18.8885 15.078 17.6569 16.6177L21.332 20.2928C21.7225 20.6833 21.7225 21.3165 21.332 21.707C20.9415 22.0975 20.3083 22.0975 19.9178 21.707L16.2427 18.0319ZM3.625 11C3.625 7.13401 6.75901 4 10.625 4C14.491 4 17.625 7.13401 17.625 11C17.625 12.8856 16.8794 14.5971 15.667 15.8557C15.6325 15.8822 15.5994 15.9112 15.5678 15.9428C15.5362 15.9744 15.5072 16.0075 15.4807 16.042C14.2221 17.2544 12.5106 18 10.625 18C6.75901 18 3.625 14.866 3.625 11Z" fill="#323137"/>
</svg>
